<svg width="817" height="616" viewBox="0 0 817 616" fill="none" xmlns="http://www.w3.org/2000/svg">
<path d="M179.113 479.969C179.274 479.71 179.285 479.535 179.176 479.118C178.952 478.263 178.678 476.392 178.619 475.207C178.211 468.206 181.686 461.237 187.524 457.307C189.331 456.09 191.477 455.081 193.239 454.608C193.977 454.414 194.097 454.349 194.26 454.055C194.712 453.296 194.074 452.56 193.175 452.796C192.363 453.009 190.347 453.298 189.278 453.361C182.236 453.745 175.4 450.383 171.394 444.566C170.254 442.922 169.387 441.138 168.736 439.138C168.402 438.083 168.284 437.85 168.049 437.695C167.663 437.442 167.11 437.598 166.86 438.041C166.684 438.327 166.686 438.464 166.845 439.073C167.316 440.87 167.502 443.232 167.336 445.39C166.939 450.671 164.372 455.744 160.308 459.244C158.276 461 156.228 462.166 153.413 463.155C151.926 463.671 151.785 463.742 151.662 464.014C151.5 464.354 151.596 464.809 151.856 465.015C152.169 465.253 152.553 465.277 153.259 465.092C154.253 464.832 156.382 464.582 157.669 464.564C164.033 464.518 170.211 467.55 174.028 472.606C175.502 474.562 176.849 477.214 177.365 479.182C177.555 479.909 177.874 480.386 178.205 480.424C178.591 480.46 178.924 480.293 179.113 479.969ZM175.522 461.408C174.333 459.617 176.755 463.535 174.84 462.117C173.821 461.368 178.949 461.793 177.861 461.347C175.409 460.321 161.732 463.02 158.667 462.794C158.576 462.796 180.381 462.033 180.964 461.64C186.291 458.026 168.45 452.423 169.06 446.035C169.12 445.391 169.188 444.779 169.197 444.685C169.214 444.532 166.666 462.434 166.745 462.561C169.819 467.218 176.224 452.35 181.215 454.035C182.531 454.479 184.864 454.964 186.359 455.087C186.969 455.144 177.401 452.92 177.323 452.975C175.219 454.406 172.522 452.906 171.287 454.213C168.62 457.026 178.286 465.353 177.383 469.189C177.105 470.394 178.991 466.255 179.072 466.565C179.159 466.896 175.755 449.426 175.522 461.408Z" fill="#CEFF00"/>
<path d="M493.1 163.364C580.966 207.56 650.997 263.744 693.2 318.833C735.429 373.955 749.691 427.824 726.41 467.505C703.13 507.185 646.561 525.426 573.635 522.625C500.753 519.826 411.733 496.008 323.867 451.811C236.001 407.615 165.97 351.431 123.767 296.342C81.5376 241.22 67.2759 187.351 90.5564 147.67C113.837 107.99 170.406 89.7488 243.332 92.5496C316.214 95.3487 405.234 119.167 493.1 163.364Z" stroke="white"/>
<path d="M465.515 480.828C465.359 481.257 465.4 481.527 465.698 482.143C466.311 483.409 467.327 486.22 467.8 488.023C470.682 498.667 467.753 510.04 460.31 517.233C458.006 519.46 455.127 521.436 452.649 522.515C451.609 522.959 451.451 523.084 451.304 523.567C450.875 524.82 452.067 525.819 453.333 525.278C454.477 524.788 457.395 523.942 458.971 523.63C469.365 521.629 480.668 525.407 488.54 533.516C490.776 535.806 492.651 538.365 494.272 541.299C495.113 542.848 495.365 543.18 495.767 543.371C496.426 543.681 497.201 543.331 497.431 542.603C497.601 542.129 497.554 541.92 497.118 541.018C495.831 538.361 494.787 534.778 494.333 531.44C493.213 523.269 495.4 514.982 500.335 508.804C502.799 505.707 505.48 503.51 509.363 501.43C511.417 500.34 511.605 500.203 511.7 499.762C511.833 499.209 511.541 498.531 511.086 498.268C510.54 497.967 509.959 498.006 508.965 498.431C507.564 499.03 504.465 499.84 502.549 500.124C493.057 501.472 482.845 498.067 475.502 491.088C472.666 488.386 469.793 484.593 468.383 481.682C467.862 480.606 467.231 479.94 466.725 479.947C466.136 479.97 465.693 480.293 465.515 480.828ZM476.905 508.542C479.264 511.047 474.373 505.531 477.694 507.319C479.46 508.263 471.662 508.64 473.432 509.105C477.427 510.184 496.982 503.306 501.632 503.036C501.768 503.016 469.444 508.56 468.701 509.279C461.918 515.884 490.387 520.887 491.55 530.797C491.669 531.796 491.767 532.747 491.783 532.893C491.807 533.131 489.801 505.194 489.641 505.014C483.539 498.497 478.797 522.559 470.795 520.979C468.685 520.564 465.043 520.288 462.77 520.401C461.841 520.435 476.856 521.923 476.953 521.823C479.631 519.208 484.147 520.966 485.568 518.716C488.639 513.87 471.497 503.053 471.599 496.995C471.624 495.094 470.151 501.812 469.929 501.353C469.691 500.864 480.447 526.946 476.905 508.542Z" fill="#CEFF00"/>
<path d="M103.322 62.9875C103.394 63.894 103.678 64.3532 104.682 65.2375C106.744 67.0514 110.729 71.3587 112.976 74.2637C126.4 91.3444 130.389 114.404 123.274 133.463C121.072 139.363 117.68 145.268 114.266 149.216C112.828 150.857 112.655 151.211 112.785 152.209C113.04 154.835 115.889 155.699 117.64 153.7C119.223 151.893 123.58 148.015 126.049 146.186C142.373 134.22 164.855 132.054 184.865 140.521C190.539 142.901 195.804 146.061 200.929 150.107C203.609 152.256 204.307 152.659 205.151 152.685C206.533 152.722 207.591 151.463 207.408 149.953C207.326 148.954 207.078 148.611 205.61 147.318C201.28 143.508 196.635 137.818 193.201 132.101C184.778 118.115 181.963 101.272 185.561 86.0689C187.347 78.4553 190.222 72.308 195.262 65.4091C197.937 61.781 198.152 61.3803 197.965 60.5003C197.754 59.3869 196.713 58.3866 195.72 58.2714C194.54 58.1597 193.569 58.6954 192.193 60.266C190.255 62.4786 185.558 66.4345 182.481 68.4868C167.192 78.54 146.887 80.514 128.685 73.6802C121.651 71.0299 113.685 66.421 108.943 62.2478C107.19 60.7052 105.574 59.9981 104.707 60.4153C103.71 60.9279 103.204 61.8719 103.322 62.9875ZM144.972 104.348C151.027 107.023 138.215 100.89 145.358 101.488C149.153 101.793 136.012 108.725 139.432 108.153C147.175 106.921 175.414 78.7387 183.214 74.5244C183.433 74.3794 132.127 110.353 131.417 112.257C124.975 129.718 178.015 116.041 187.892 133.158C188.892 134.882 189.816 136.537 189.96 136.79C190.19 137.204 164.537 87.9257 164.119 87.7265C148.424 80.7406 159.369 128.364 144.322 131.891C140.355 132.825 133.859 135.238 130.032 137.263C128.457 138.069 155.517 128.759 155.606 128.5C158.144 121.591 167.324 121.178 167.984 115.943C169.427 104.658 131.29 98.68 126.653 87.5638C125.185 84.081 127.983 97.4971 127.236 96.8396C126.437 96.1378 165.698 135.032 144.972 104.348Z" fill="#CEFF00"/>
</svg>
